<?xml version="1.0" encoding="UTF-8" standalone="no"?>
<svg width="24px" height="24px" viewBox="0 0 24 24" version="1.1" xmlns="http://www.w3.org/2000/svg" xmlns:xlink="http://www.w3.org/1999/xlink" xmlns:sketch="http://www.bohemiancoding.com/sketch/ns">
    <!-- Generator: Sketch 3.3 (11970) - http://www.bohemiancoding.com/sketch -->
    <title>lock</title>
    <desc>Created with Sketch.</desc>
    <defs></defs>
    <g id="Page-1" stroke="none" stroke-width="1" fill="none" fill-rule="evenodd" sketch:type="MSPage">
        <g id="scrapbook" sketch:type="MSArtboardGroup" transform="translate(-828.000000, -197.000000)" fill="#3F2613">
            <path d="M847.235505,207.677527 C847.399708,207.499363 847.5,207.261394 847.5,207 C847.5,206.447715 847.052285,206 846.5,206 C845.947715,206 845.5,206.447715 845.5,207 C845.5,207.261394 845.600292,207.499363 845.764495,207.677527 L845.5,209 L847.5,209 L847.235505,207.677527 Z M845,204 L845,202 L843,202 L843,204 L842,204 L842,211 L851,211 L851,204 L850,204 L850,202 L848,202 L848,204 L845,204 Z M850,202 C850,200.067003 848.432997,198.5 846.5,198.5 C844.567003,198.5 843,200.067003 843,202 L845,202 C845,201.171573 845.671573,200.5 846.5,200.5 C847.328427,200.5 848,201.171573 848,202 L850,202 L850,202 Z" id="Oval-1" sketch:type="MSShapeGroup"></path>
        </g>
    </g>
</svg>