<?xml version="1.0" encoding="UTF-8" standalone="no"?>
<svg width="22px" height="15px" viewBox="0 0 22 15" version="1.1" xmlns="http://www.w3.org/2000/svg" xmlns:xlink="http://www.w3.org/1999/xlink" xmlns:sketch="http://www.bohemiancoding.com/sketch/ns">
    <!-- Generator: Sketch 3.3 (11970) - http://www.bohemiancoding.com/sketch -->
    <title>Group</title>
    <desc>Created with Sketch.</desc>
    <defs></defs>
    <g id="Page-1" stroke="none" stroke-width="1" fill="none" fill-rule="evenodd" sketch:type="MSPage">
        <g id="Artboard-2-Copy-2" sketch:type="MSArtboardGroup" transform="translate(-594.000000, -269.000000)">
            <g id="Group" sketch:type="MSLayerGroup" transform="translate(179.000000, 136.000000)">
                <path d="M78.7572223,139.629455 C79.9080405,140.862034 82.5661792,143.950792 82.5661792,143.950792 C84.3285436,145.982462 87.1060382,145.912781 88.7630206,143.803894 L93.751424,137.455017 C95.4114805,135.342218 98.1060382,135.34613 99.7630206,137.455017 L104.751424,143.803894 C106.411481,145.916693 109.106038,145.912781 110.763021,143.803894 L115.751424,137.455017 C117.411481,135.342218 120.180903,135.290416 121.925778,137.326103 L127.588667,143.932807 C129.338612,145.97441 132.106038,145.912781 133.763021,143.803894 L138.751424,137.455017 C140.411481,135.342218 143.106038,135.34613 144.763021,137.455017 L149.751424,143.803894 C151.411481,145.916693 154.180903,145.968494 155.925778,143.932807 L161.588667,137.326103 C163.338612,135.284501 166.106038,135.34613 167.763021,137.455017 L172.751424,143.803894 C174.411481,145.916693 177.106038,145.912781 178.763021,143.803894 L183.751424,137.455017 C185.411481,135.342218 188.180903,135.290416 189.925778,137.326103 L195.588667,143.932807 C197.338612,145.97441 200.106038,145.912781 201.763021,143.803894 L206.751424,137.455017 C208.411481,135.342218 211.106038,135.34613 212.763021,137.455017 L217.751424,143.803894 C219.411481,145.916693 222.180903,145.968494 223.925778,143.932807 L229.588667,137.326103 C231.338612,135.284501 234.106038,135.34613 235.763021,137.455017 L240.751424,143.803894 C242.411481,145.916693 245.106038,145.912781 246.763021,143.803894 L251.751424,137.455017 C253.411481,135.342218 256.106038,135.34613 257.763021,137.455017 L262.751424,143.803894 C264.411481,145.916693 267.180903,145.968494 268.925778,143.932807 L274.588667,137.326103 C276.338612,135.284501 279.106038,135.34613 280.763021,137.455017 L285.751424,143.803894 C287.411481,145.916693 290.106038,145.912781 291.763021,143.803894 L296.751424,137.455017 C298.411481,135.342218 301.180903,135.290416 302.925778,137.326103 L308.588667,143.932807 C310.338612,145.97441 313.106038,145.912781 314.763021,143.803894 L319.751424,137.455017 C321.411481,135.342218 324.106038,135.34613 325.763021,137.455017 L330.751424,143.803894 C332.411481,145.916693 335.180903,145.968494 336.925778,143.932807 L342.588667,137.326103 C344.338612,135.284501 347.106038,135.34613 348.763021,137.455017 L353.751424,143.803894 C355.411481,145.916693 358.106038,145.912781 359.763021,143.803894 L364.751424,137.455017 C366.411481,135.342218 369.180903,135.290416 370.925778,137.326103 L376.588667,143.932807 C378.338612,145.97441 381.106038,145.912781 382.763021,143.803894 L387.751424,137.455017 C389.411481,135.342218 392.106038,135.34613 393.763021,137.455017 L398.751424,143.803894 C400.411481,145.916693 403.180903,145.968494 404.925778,143.932807 L410.588667,137.326103 C412.338612,135.284501 415.106038,135.34613 416.763021,137.455017 L421.751424,143.803894 C423.411481,145.916693 426.106038,145.912781 427.763021,143.803894 L432.751424,137.455017 C434.411481,135.342218 437.106038,135.34613 438.763021,137.455017 L443.751424,143.803894 C445.411481,145.916693 448.180903,145.968494 449.925778,143.932807 L455.588667,137.326103 C457.338612,135.284501 460.106038,135.34613 461.763021,137.455017 L466.751424,143.803894 C468.411481,145.916693 471.106038,145.912781 472.763021,143.803894 L477.751424,137.455017 C479.411481,135.342218 482.180903,135.290416 483.925778,137.326103 L489.588667,143.932807 C491.338612,145.97441 494.106038,145.912781 495.763021,143.803894 L500.751424,137.455017 C502.411481,135.342218 505.106038,135.34613 506.763021,137.455017 L511.751424,143.803894 C513.411481,145.916693 516.180903,145.968494 517.925778,143.932807 L523.588667,137.326103 C525.338612,135.284501 528.106038,135.34613 529.763021,137.455017 L534.751424,143.803894 C536.411481,145.916693 539.106038,145.912781 540.763021,143.803894 L545.751424,137.455017 C547.411481,135.342218 550.180903,135.290416 551.925778,137.326103 L557.588667,143.932807 C559.338612,145.97441 562.106038,145.912781 563.763021,143.803894 L568.751424,137.455017 C570.411481,135.342218 573.106038,135.34613 574.763021,137.455017 L579.751424,143.803894 C581.411481,145.916693 584.106038,145.912781 585.763021,143.803894 L590.751424,137.455017 C592.411481,135.342218 595.180903,135.290416 596.925778,137.326103 L602.588667,143.932807 C604.338612,145.97441 607.106038,145.912781 608.763021,143.803894 L613.751424,137.455017 C615.411481,135.342218 618.106038,135.34613 619.763021,137.455017 L624.751424,143.803894 C626.411481,145.916693 629.180903,145.968494 630.925778,143.932807 L636.588667,137.326103 C638.338612,135.284501 641.106038,135.34613 642.763021,137.455017 L647.751424,143.803894 C649.411481,145.916693 652.106038,145.912781 653.763021,143.803894 L658.751424,137.455017 C660.411481,135.342218 663.180903,135.290416 664.925778,137.326103 L670.588667,143.932807 C672.338612,145.97441 675.106038,145.912781 676.763021,143.803894 L681.751424,137.455017 C683.411481,135.342218 686.106038,135.34613 687.763021,137.455017 L692.751424,143.803894 C694.411481,145.916693 697.180903,145.968494 698.925778,143.932807 L704.588667,137.326103 C706.338612,135.284501 709.106038,135.34613 710.763021,137.455017 L715.751424,143.803894 C717.411481,145.916693 720.106038,145.912781 721.763021,143.803894 L726.751424,137.455017 C728.411481,135.342218 731.106038,135.34613 732.763021,137.455017 L737.751424,143.803894 C739.411481,145.916693 742.180903,145.968494 743.925778,143.932807 L749.588667,137.326103 C751.338612,135.284501 754.106038,135.34613 755.763021,137.455017 L760.751424,143.803894 C762.411481,145.916693 765.106038,145.912781 766.763021,143.803894 L771.751424,137.455017 C773.411481,135.342218 776.180903,135.290416 777.925778,137.326103 L783.588667,143.932807 C785.338612,145.97441 788.106038,145.912781 789.763021,143.803894 L794.751424,137.455017 C796.411481,135.342218 799.106038,135.34613 800.763021,137.455017 L805.751424,143.803894 C807.411481,145.916693 810.180903,145.968494 811.925778,143.932807 L817.588667,137.326103 C819.338612,135.284501 822.106038,135.34613 823.763021,137.455017 L828.751424,143.803894 C830.411481,145.916693 833.106038,145.912781 834.763021,143.803894 L839.751424,137.455017 C841.411481,135.342218 844.180903,135.290416 845.925778,137.326103 L851.588667,143.932807 C853.338612,145.97441 856.106038,145.912781 857.763021,143.803894 L862.751424,137.455017 C864.411481,135.342218 867.106038,135.34613 868.763021,137.455017 L873.751424,143.803894 C875.411481,145.916693 878.180903,145.968494 879.925778,143.932807 L885.588667,137.326103 C887.338612,135.284501 890.106038,135.34613 891.763021,137.455017 L896.751424,143.803894 C898.411481,145.916693 901.106038,145.912781 902.763021,143.803894 L907.751424,137.455017 C909.411481,135.342218 912.106038,135.34613 913.763021,137.455017 L918.751424,143.803894 C920.411481,145.916693 923.180903,145.968494 924.925778,143.932807 L930.588667,137.326103 C932.338612,135.284501 935.106038,135.34613 936.763021,137.455017 L941.751424,143.803894 C943.411481,145.916693 946.106038,145.912781 947.763021,143.803894 L952.751424,137.455017 C954.411481,135.342218 957.180903,135.290416 958.925778,137.326103 L964.588667,143.932807 C966.338612,145.97441 969.106038,145.912781 970.763021,143.803894 L975.751424,137.455017 C977.411481,135.342218 980.106038,135.34613 981.763021,137.455017 L986.751424,143.803894 C988.411481,145.916693 991.180903,145.968494 992.925778,143.932807 L998.588667,137.326103 C1000.33861,135.284501 1003.10604,135.34613 1004.76302,137.455017 L1009.75142,143.803894 C1011.41148,145.916693 1014.10604,145.912781 1015.76302,143.803894 L1020.75142,137.455017 C1022.41148,135.342218 1025.1809,135.290416 1026.92578,137.326103 L1032.58867,143.932807 C1034.33861,145.97441 1037.10604,145.912781 1038.76302,143.803894 L1043.75142,137.455017 C1045.41148,135.342218 1048.10604,135.34613 1049.76302,137.455017 L1054.75142,143.803894 C1056.41148,145.916693 1059.10604,145.912781 1060.76302,143.803894 L1065.75142,137.455017 C1067.41148,135.342218 1070.1809,135.290416 1071.92578,137.326103 L1077.58867,143.932807 C1079.33861,145.97441 1082.10604,145.912781 1083.76302,143.803894 L1088.75142,137.455017 C1090.41148,135.342218 1093.10604,135.34613 1094.76302,137.455017 L1099.75142,143.803894 C1101.41148,145.916693 1104.1809,145.968494 1105.92578,143.932807 L1111.58867,137.326103 C1113.33861,135.284501 1116.10604,135.34613 1117.76302,137.455017 L1122.75142,143.803894 C1124.41148,145.916693 1127.10604,145.912781 1128.76302,143.803894 L1133.75142,137.455017 C1135.41148,135.342218 1138.1809,135.290416 1139.92578,137.326103 L1145.58867,143.932807 C1147.33861,145.97441 1150.10604,145.912781 1151.76302,143.803894 L1156.75142,137.455017 C1158.41148,135.342218 1161.10604,135.34613 1162.76302,137.455017 L1167.75142,143.803894" id="Path-68-Copy" stroke="#3F2613" stroke-width="2" opacity="0.151702425" sketch:type="MSShapeGroup"></path>
                <text id="INFORMATION" sketch:type="MSTextLayer" font-family="Futura PT" font-size="36" font-weight="633" fill="#3F2613">
                    <tspan x="78" y="153">INFORMATION</tspan>
                </text>
            </g>
        </g>
    </g>
</svg>
